PathFileType	4	(X/Y/Z)	C:/Users/dbak576/Desktop/Duncan Bakke Modelling Files/H28s1/Static_H28s1.trc	
DataRate	CameraRate	NumFrames	NumMarkers	Units	OrigDataRate	OrigDataStartFrame	OrigNumFrames	
200.00	200.00	5	61	mm	200.00	465	187	
Frame#	Time	LFHD			RFHD			LBHD			RBHD			C7			T10			CLAV			STRN			RBack			LASI			RASI			LPSI			RPSI			RACR1			RUA1			RElbow			RElbowM			RFA1			RWRR			RWRU			RCAR			LACR1			LUA1			LElbow			LElbowM			LFA1			LWRR			LWRU			LCAR			RTH1			RTH3			RTH2			RTH4			RLFC			RMFC			RTB1			RTB3			RTB2			RTB4			RLMAL			RMMAL			RCAL			RMT1			RMT5			RToe			LTH1			LTH3			LTH2			LTH4			LLFC			LMFC			LTB1			LTB3			LTB2			LTB4			LLMAL			LMMAL			LCAL			LMT1			LMT5			LToe			
		X1	Y1	Z1	X2	Y2	Z2	X3	Y3	Z3	X4	Y4	Z4	X5	Y5	Z5	X6	Y6	Z6	X7	Y7	Z7	X8	Y8	Z8	X9	Y9	Z9	X10	Y10	Z10	X11	Y11	Z11	X12	Y12	Z12	X13	Y13	Z13	X14	Y14	Z14	X15	Y15	Z15	X16	Y16	Z16	X17	Y17	Z17	X18	Y18	Z18	X19	Y19	Z19	X20	Y20	Z20	X21	Y21	Z21	X22	Y22	Z22	X23	Y23	Z23	X24	Y24	Z24	X25	Y25	Z25	X26	Y26	Z26	X27	Y27	Z27	X28	Y28	Z28	X29	Y29	Z29	X30	Y30	Z30	X31	Y31	Z31	X32	Y32	Z32	X33	Y33	Z33	X34	Y34	Z34	X35	Y35	Z35	X36	Y36	Z36	X37	Y37	Z37	X38	Y38	Z38	X39	Y39	Z39	X40	Y40	Z40	X41	Y41	Z41	X42	Y42	Z42	X43	Y43	Z43	X44	Y44	Z44	X45	Y45	Z45	X46	Y46	Z46	X47	Y47	Z47	X48	Y48	Z48	X49	Y49	Z49	X50	Y50	Z50	X51	Y51	Z51	X52	Y52	Z52	X53	Y53	Z53	X54	Y54	Z54	X55	Y55	Z55	X56	Y56	Z56	X57	Y57	Z57	X58	Y58	Z58	X59	Y59	Z59	X60	Y60	Z60	X61	Y61	Z61	

141	0.700	-8.77395	-326.69781	1446.08069	86.45564	-342.63483	1433.56836	-49.47941	-457.48795	1380.91479	81.89314	-478.13882	1371.13306	13.24272	-513.90906	1277.73523	23.92008	-578.59753	1072.40808	12.45929	-365.86099	1207.25757	11.76701	-314.24274	1106.97937	123.48169	-554.70874	1149.74182	-156.43333	-378.27823	831.36713	163.28464	-344.78189	832.72253	-26.27902	-625.85370	862.55054	76.83505	-608.40625	853.84717	158.06050	-476.96796	1261.40015	282.98697	-464.58249	1225.33752	400.03497	-432.42044	1197.58655	391.25803	-369.30417	1146.03699	512.53955	-409.17368	1243.94470	602.55896	-356.90744	1262.50488	613.48944	-385.83353	1197.70081	677.79980	-349.85651	1230.84045	-141.84436	-477.54605	1263.70630	-277.27554	-441.10977	1230.41626	-380.66455	-396.30847	1189.76294	-360.50870	-343.94794	1153.71790	-477.37360	-389.13293	1228.67102	-575.91388	-336.39438	1246.17773	-585.26624	-356.09891	1186.99805	-646.06488	-328.62518	1214.49951	220.78104	-427.09152	652.32373	189.93390	-442.74759	482.26730	187.80013	-380.00647	566.24634	208.78839	-437.05417	567.01611	174.12711	-481.42859	399.45258	33.32610	-458.86676	386.89578	140.18239	-429.95740	294.60239	143.31677	-442.55914	123.90406	189.12572	-479.22781	212.82481	141.31883	-440.06171	208.32561	180.86067	-492.10284	63.09301	99.98676	-473.82553	63.03204	135.93370	-545.00494	31.51525	124.54701	-375.17615	27.28496	217.13405	-407.15399	25.34554	162.51849	-321.43777	28.96027	-215.75325	-452.86935	673.35620	-192.96413	-462.30682	500.89124	-186.60037	-402.43896	589.23041	-210.57799	-456.06638	587.09204	-174.18129	-448.00412	406.11920	-32.64643	-449.12766	398.72388	-129.57178	-425.50229	298.46460	-152.49443	-447.19781	130.14368	-194.29410	-467.44492	224.32367	-139.48631	-439.49515	212.16678	-188.75230	-503.04077	64.10880	-112.60502	-473.88068	65.07861	-145.56979	-541.04846	41.01470	-140.48019	-374.16290	31.96563	-223.80737	-420.24500	20.96177	-172.08569	-320.84970	26.23693 
142	0.705	-8.74459	-326.74908	1446.06921	86.49176	-342.66425	1433.57813	-49.49711	-457.50381	1380.88928	81.89352	-478.17889	1371.11975	13.21878	-513.96808	1277.73938	23.89779	-578.64240	1072.41675	12.40416	-365.93536	1207.29688	11.66523	-314.28436	1106.98145	123.37321	-554.69403	1149.72192	-156.48055	-378.42377	831.43243	163.24139	-344.79913	832.71124	-26.20888	-625.90332	862.46130	76.91200	-608.38306	853.83936	158.01152	-477.00317	1261.37537	283.01483	-464.60825	1225.34656	400.05109	-432.41141	1197.62134	391.23407	-369.39127	1146.04468	512.55786	-409.18680	1243.92029	602.52496	-356.90698	1262.50659	613.49939	-385.82718	1197.70911	677.75757	-349.82950	1230.79980	-141.82062	-477.60101	1263.69958	-277.27939	-441.10788	1230.45911	-380.68658	-396.33044	1189.76428	-360.36060	-343.90454	1153.34717	-477.31815	-389.09460	1228.72522	-575.94757	-336.37155	1246.27808	-585.28522	-356.07068	1187.04468	-646.03217	-328.43539	1214.49182	220.77887	-427.06854	652.30292	189.99150	-442.97931	482.23715	187.77267	-380.00909	566.28009	208.75223	-437.00980	567.01056	174.25735	-481.51431	399.53552	33.26091	-458.92810	386.93100	140.16620	-429.95874	294.58362	143.30408	-442.54297	123.90796	189.16043	-479.28854	212.83202	141.31500	-440.06107	208.32399	180.87697	-492.21130	63.04626	99.98212	-473.82385	63.03711	135.90027	-544.99963	31.57221	124.53191	-375.23996	27.25881	216.86015	-407.09091	25.29800	162.56854	-321.45270	28.97939	-215.77336	-452.93503	673.37683	-192.94997	-462.31039	500.89828	-186.60217	-402.47546	589.23108	-210.59930	-456.08841	587.08990	-174.20135	-448.02933	406.10703	-32.67714	-449.10437	398.71011	-129.57474	-425.48575	298.47549	-152.51001	-447.18762	130.16147	-194.29343	-467.45355	224.32021	-139.50426	-439.49084	212.17244	-188.75504	-503.02634	64.11292	-112.60499	-473.80258	65.08364	-145.57991	-541.03650	40.95927	-140.46950	-374.16376	31.97777	-223.80594	-420.15781	21.00813	-172.09056	-320.85150	26.24235 
143	0.710	-8.71506	-326.80173	1446.04944	86.52666	-342.69836	1433.58899	-49.51208	-457.52731	1380.87878	81.92183	-478.21829	1371.09424	13.21004	-514.00269	1277.72571	23.86989	-578.68463	1072.42432	12.34020	-365.98349	1207.33374	11.57522	-314.33688	1106.99548	123.29151	-554.68768	1149.72742	-156.60675	-378.60016	831.58826	163.20534	-344.81860	832.70294	-26.15160	-625.93048	862.40930	76.94408	-608.34613	853.83740	157.97997	-477.05878	1261.35168	283.03561	-464.62619	1225.35559	400.06946	-432.40277	1197.62830	391.22504	-369.48056	1146.05835	512.57288	-409.18353	1243.89258	602.50348	-356.90247	1262.50488	613.53302	-385.84518	1197.73877	677.72186	-349.79956	1230.76978	-141.80563	-477.67215	1263.71228	-277.27594	-441.10516	1230.51636	-380.69745	-396.35529	1189.77466	-360.28656	-343.89804	1153.23181	-477.29489	-389.04794	1228.78406	-575.94641	-336.36401	1246.35107	-585.29022	-356.04691	1187.08704	-645.88123	-328.19455	1214.36499	220.76543	-427.04938	652.28729	190.03122	-443.22351	482.21194	187.75201	-380.01376	566.30695	208.72385	-436.94907	567.00562	174.34689	-481.59055	399.61111	33.24972	-458.94992	386.90015	140.15208	-429.95804	294.56625	143.29877	-442.53665	123.91094	189.19383	-479.34985	212.82855	141.31894	-440.06100	208.31924	181.01131	-492.29984	62.94288	99.97248	-473.82516	63.04325	135.85849	-544.99469	31.63308	124.70735	-375.38284	27.06120	216.60706	-407.02478	25.24274	162.53113	-321.44400	28.94216	-215.80392	-452.99063	673.39233	-192.94008	-462.30310	500.91504	-186.60655	-402.50320	589.23114	-210.61850	-456.08093	587.11371	-174.20956	-448.05875	406.10129	-32.70256	-449.08472	398.70737	-129.57530	-425.47580	298.48456	-152.49507	-447.20023	130.23378	-194.28497	-467.45474	224.30882	-139.54564	-439.51440	212.19930	-188.76042	-503.01230	64.11442	-112.62938	-473.72192	65.08335	-145.64778	-541.07715	40.92117	-140.46797	-374.17633	31.97748	-223.81038	-420.09686	21.05924	-172.08939	-320.84982	26.25153 
144	0.715	-8.69660	-326.86407	1446.02466	86.48946	-342.76471	1433.59900	-49.50119	-457.59558	1380.89429	81.97100	-478.25153	1371.06421	13.22437	-513.99249	1277.71655	23.84359	-578.71741	1072.43127	12.28663	-366.00598	1207.33923	11.51381	-314.37421	1107.00146	123.24110	-554.69507	1149.76208	-156.69481	-378.77548	831.67493	163.17296	-344.83414	832.68518	-26.09842	-625.93573	862.40747	76.93427	-608.29944	853.83948	157.96924	-477.13181	1261.33691	283.04807	-464.63123	1225.36548	400.08395	-432.40320	1197.60693	391.23013	-369.57498	1146.05615	512.58301	-409.16586	1243.87109	602.47797	-356.91916	1262.51660	613.57477	-385.87259	1197.74475	677.69641	-349.77237	1230.75159	-141.79948	-477.72018	1263.72668	-277.28558	-441.12515	1230.56396	-380.69543	-396.38663	1189.76758	-360.19455	-343.95435	1153.07959	-477.27542	-389.01346	1228.78882	-575.89502	-336.36212	1246.38220	-585.28955	-356.03027	1187.12268	-645.65570	-327.86740	1214.19177	220.74277	-427.03967	652.29321	190.05536	-443.46375	482.19562	187.72693	-380.02783	566.32275	208.70088	-436.87430	567.00378	174.39610	-481.64655	399.67844	33.25258	-458.95523	386.87320	140.13937	-429.95468	294.55002	143.29623	-442.53479	123.90533	189.21727	-479.40134	212.82228	141.32185	-440.06442	208.31700	181.20718	-492.34549	62.83185	99.96426	-473.82748	63.04703	135.89316	-544.96893	31.57829	124.95520	-375.47482	26.81138	216.38591	-406.95532	25.18424	162.50880	-321.43884	28.93030	-215.84216	-453.02921	673.40576	-192.93362	-462.30066	500.91183	-186.61356	-402.53290	589.23175	-210.64571	-456.06070	587.13000	-174.22112	-448.08206	406.09109	-32.71531	-449.06442	398.70044	-129.55669	-425.48901	298.52139	-152.50421	-447.19998	130.25301	-194.26451	-467.44574	224.30502	-139.61302	-439.54880	212.23895	-188.76933	-502.99924	64.11905	-112.67703	-473.66391	65.08595	-145.65312	-541.11877	40.90784	-140.46268	-374.18967	31.98865	-223.78419	-420.07529	21.05955	-172.06841	-320.85501	26.26922 
145	0.720	-8.68559	-326.94562	1446.00671	86.41583	-342.84204	1433.60876	-49.48497	-457.67947	1380.92065	82.02765	-478.27557	1371.05432	13.25917	-513.96802	1277.72949	23.81598	-578.73926	1072.42651	12.24753	-366.01364	1207.34314	11.45862	-314.41864	1107.01477	123.23811	-554.72516	1149.79346	-156.74626	-378.94217	831.70129	163.14752	-344.84583	832.65723	-26.05460	-625.94354	862.43463	76.91980	-608.32422	853.84625	157.96819	-477.20926	1261.33228	283.05594	-464.62863	1225.37659	400.10052	-432.41129	1197.57019	391.24289	-369.66019	1146.06616	512.59338	-409.16315	1243.84827	602.46313	-356.93961	1262.51941	613.59155	-385.91888	1197.74915	677.68304	-349.75305	1230.74719	-141.83397	-477.78912	1263.73962	-277.30804	-441.15259	1230.60229	-380.68658	-396.41440	1189.76575	-360.04718	-344.03464	1152.87097	-477.26489	-388.98157	1228.78662	-575.81311	-336.35056	1246.40686	-585.28265	-355.98737	1187.18701	-645.43616	-327.54694	1214.11206	220.71024	-427.04346	652.29840	190.06216	-443.68674	482.19495	187.69632	-380.05420	566.33679	208.68449	-436.79172	567.00269	174.40660	-481.68140	399.72742	33.22438	-458.96985	386.93011	140.12865	-429.94977	294.53891	143.29485	-442.53299	123.89980	189.23907	-479.45535	212.80154	141.32660	-440.07095	208.31746	181.24887	-492.34818	62.83959	99.95801	-473.83005	63.04939	135.93901	-544.92920	31.50781	125.30855	-375.47388	26.43792	216.30319	-406.91504	25.16240	162.43088	-321.41757	28.90987	-215.88248	-453.05820	673.41254	-192.94022	-462.32263	500.91183	-186.61998	-402.55917	589.23315	-210.66869	-456.04343	587.14240	-174.22945	-448.09546	406.09372	-32.71466	-449.04602	398.70526	-129.54539	-425.50864	298.56311	-152.52628	-447.19498	130.23334	-194.24225	-467.44217	224.29562	-139.65599	-439.57928	212.24901	-188.77402	-502.99146	64.10959	-112.73051	-473.61139	65.08862	-145.62439	-541.13165	40.93655	-140.47119	-374.21902	31.98147	-223.85399	-420.09671	21.11170	-172.06056	-320.85339	26.27920 
